<?xml version="1.0" encoding="utf-8"?>
<!-- Generator: Adobe Illustrator 16.0.4, SVG Export Plug-In . SVG Version: 6.00 Build 0)  -->
<!DOCTYPE svg PUBLIC "-//W3C//DTD SVG 1.1//EN" "http://www.w3.org/Graphics/SVG/1.1/DTD/svg11.dtd">
<svg version="1.1" id="Layer_1" xmlns="http://www.w3.org/2000/svg" xmlns:xlink="http://www.w3.org/1999/xlink" x="0px" y="0px"
	 width="595.28px" height="235.488px" viewBox="0 0 595.28 235.488" enable-background="new 0 0 595.28 235.488"
	 xml:space="preserve">
<path fill-rule="evenodd" clip-rule="evenodd" fill="#838487" d="M196.493,14.247c9.656,0.161,19.271,0.663,28.855,2.032
	c4.761,0.681,8.055,2.854,10.104,7.07c3.856,7.936,7.404,16.035,11.568,23.806c10.938,20.411,26.924,33.547,51.108,34.411
	c2.078,0.074,4.246-0.305,4.901,2.877c0.767,3.721,0.379,5.266-4.065,5.166c-14.12-0.317-28.339,0.832-41.973-4.296
	c-10.359-3.896-19.896-9.346-29.01-15.5c-13.576-9.168-27.884-11.309-43.143-5.058c-5.993,2.455-11.656,1.997-17.378-0.626
	c-6.658-3.053-13.371-5.988-20.024-9.051c-12.575-5.789-24.485-4.695-35.986,2.997c-8.579,5.738-17.272,11.314-26.057,16.732
	c-15.97,9.849-33.477,13.526-52.09,12.46c-1.639-0.094-3.732,0.216-3.249-2.418c0.379-2.07-0.333-4.957,3.035-5.398
	c0.656-0.086,1.34-0.102,1.996-0.021c16.367,2.01,28.826-5.522,40.331-16.006c8.443-7.692,15.454-16.545,22.17-25.648
	c4.268-5.784,9.079-8.726,16.726-8.484c13.949,0.441,27.953,0.208,41.852-1.771c5.44-0.774,10.237-2.315,13.886-6.84
	c3.766-4.667,8.775-6.908,14.954-6.482C188.816,14.46,192.662,14.247,196.493,14.247z"/>
<path fill-rule="evenodd" clip-rule="evenodd" fill="#90C64C" d="M267.488,111.176c-43.144,0-86.289,0.123-129.432-0.038
	c-35.147-0.132-70.292-0.68-105.438-0.833c-4.585-0.021-5.576-1.374-4.94-5.764c0.476-3.283,2.174-3.138,4.408-3.078
	c10.679,0.283,21.289-0.119,31.778-2.5c13.732-3.116,25.785-9.737,37.362-17.424c5.689-3.778,11.367-7.574,17.07-11.332
	c7.676-5.058,15.688-5.888,24.191-2.111c6.998,3.106,14.116,5.916,20.926,9.466c7.782,4.058,16.307,4.885,24.193,1.408
	c12.9-5.687,24.153-3.244,35.357,4.145c12.249,8.077,24.816,15.564,39.453,18.826c8.076,1.799,16.192,1.695,24.344,1.822
	c4.99,0.077,9.983,0.548,14.964,0.428c3.93-0.095,3.601,2.554,3.861,4.97c0.346,3.189-1.682,3.367-4.108,3.354
	c-11.33-0.059-22.659-0.025-33.989-0.025C267.489,112.051,267.488,111.614,267.488,111.176z"/>
<path fill-rule="evenodd" clip-rule="evenodd" fill="#9D877C" d="M41.877,150.342c26.972,1.077,52.678,4.515,77.589,12.235
	c34.238,10.611,67.884,9.264,101.2-3.481c24.829-9.499,50.679-12.108,76.992-11.689c1.687,0.027,4.518-1.088,4.17,2.446
	c-0.251,2.548-0.731,4.761-4.373,4.699c-6.143-0.105-12.295,0.355-18.445,0.535c-6.693,0.195-11.794,3.432-15.608,8.62
	c-6.526,8.878-15.317,14.644-25.114,19.191c-4.983,2.312-9.928,4.718-14.807,7.241c-7.06,3.65-13.026,8.567-17.498,15.259
	c-4.006,5.993-8.962,11.12-14.687,15.546c-2.315,1.789-3.779,1.525-5.944-0.408c-11.305-10.097-21.976-20.804-32.368-31.835
	c-8.923-9.472-12.145-9.261-21.288-0.156c-2.006,1.998-4.163,3.873-5.968,6.04c-3.485,4.183-7.087,4.022-11.307,1.105
	c-6.387-4.416-11.689-10.021-16.323-16.043c-11.535-14.99-27.736-19.871-45.31-22.185c-5.282-0.695-10.613-1.161-15.928-0.722
	c-3.484,0.289-5.671-0.801-5.536-4.394c0.143-3.783,3.274-1.604,5.008-1.916C38.43,150.054,40.646,150.342,41.877,150.342z"/>
<path fill-rule="evenodd" clip-rule="evenodd" fill="#2CADDF" d="M165.565,154.46c-17.558,0.494-35.538-3.952-53.471-8.39
	c-26.125-6.464-52.523-10.723-79.488-10.521c-4.657,0.034-4.433-2.397-4.748-5.528c-0.425-4.219,2.352-3.51,4.78-3.529
	c52.465-0.441,104.93-0.877,157.395-1.32c35.476-0.299,70.951-0.606,106.426-0.92c1.163-0.011,2.325-0.14,3.487-0.211
	c2.463-0.149,5.169-0.967,5.071,3.237c-0.079,3.449-0.578,5.281-4.94,5.306c-29.323,0.165-58.008,4.076-85.76,14.255
	C199.065,152.431,183.033,154.726,165.565,154.46z"/>
<path fill-rule="evenodd" clip-rule="evenodd" fill="#3B3839" d="M360.351,154.219c1.689,0.746,5.105-1.549,5.807,1.262
	c0.854,3.432,0.241,7.249,0.104,10.895c-0.038,1.031-1.541,1.356-1.913,0.937c-2.725-3.081-5.082-0.228-7.545,0.323
	c-6.086,1.361-12.315-1.271-14.938-6.385c-3.06-5.965-1.598-14.287,3.225-18.357c4.605-3.887,12.546-4.302,17.276-0.899
	c2.291,1.647,3.631,3.863,3.876,6.685c0.101,1.167,0.206,2.449-1.467,2.64c-1.188,0.136-2.124,0.01-2.875-1.3
	c-3.721-6.485-7.613-7.908-12.377-4.714c-4.663,3.126-5.733,11.076-2.101,15.613c3.353,4.188,10.282,4.436,13.103,0.442
	c0.669-0.947,1.351-2.011,0.739-3.219c-0.556-1.098-1.712-0.751-2.656-0.812c-0.829-0.054-1.665,0.005-2.496-0.023
	c-1.142-0.037-2.578,0.154-2.646-1.491c-0.069-1.694,1.354-1.573,2.515-1.591C357.312,154.203,358.645,154.219,360.351,154.219z"/>
<path fill-rule="evenodd" clip-rule="evenodd" fill="#3B3839" d="M501.992,107.593c0,5.597,0.013,11.192-0.008,16.789
	c-0.007,1.77,0.467,3.903-2.486,3.78c-2.584-0.107-2.162-2.008-2.167-3.619c-0.016-6.315-0.079-12.633,0.046-18.945
	c0.031-1.581-1.126-4.155,1.717-4.383c2.449-0.196,5.256-1.169,7.089,1.963c3.02,5.157,6.315,10.154,9.521,15.202
	c0.32,0.504,0.818,0.896,2.147,2.315c0-5.827-0.09-10.543,0.048-15.253c0.049-1.696-1.157-4.444,2.305-4.328
	c3.478,0.116,1.992,2.904,2.039,4.527c0.174,5.979,0.152,11.966,0.014,17.946c-0.036,1.573,1.179,3.955-1.579,4.506
	c-2.396,0.479-4.398,0.018-5.858-2.502c-3.081-5.313-6.488-10.438-9.788-15.625c-0.604-0.95-1.332-1.822-2.002-2.731
	C502.683,107.355,502.337,107.474,501.992,107.593z"/>
<path fill-rule="evenodd" clip-rule="evenodd" fill="#3B3839" d="M511.119,75.392c1.689,0.703,5.166-1.509,5.816,1.178
	c0.869,3.592,0.247,7.576,0.021,11.377c-0.044,0.731-1.891,0.903-2.145,0.485c-2.092-3.448-4.03-0.582-5.919,0.079
	c-5.9,2.066-13.13-0.5-16.028-5.805c-3.306-6.05-1.843-14.601,3.203-18.723c5.001-4.087,13.679-4.143,18.029-0.046
	c0.829,0.779,1.641,1.741,2.035,2.78c0.709,1.865,2.423,4.312-0.265,5.592c-2.733,1.303-3.089-1.391-3.647-3.258
	c-0.047-0.158-0.119-0.313-0.204-0.454c-2.019-3.351-5.13-4.012-8.648-3.327c-4.28,0.835-7.048,4.55-7.278,9.51
	c-0.23,4.966,2.169,8.96,6.328,10.185c3.457,1.019,6.613,0.42,9.019-2.489c0.748-0.905,1.264-2.043,0.709-3.227
	c-0.537-1.145-1.718-0.706-2.649-0.772c-0.993-0.072-1.996,0-2.992-0.04c-0.994-0.04-2.151-0.04-2.225-1.389
	c-0.095-1.759,1.324-1.598,2.45-1.644C508.059,75.351,509.391,75.392,511.119,75.392z"/>
<path fill-rule="evenodd" clip-rule="evenodd" fill="#3B3839" d="M421.62,153.712c0.028,8.505-5.515,14.189-13.898,14.252
	c-8.389,0.062-14.083-5.559-14.181-13.998c-0.097-8.345,5.622-14.218,13.921-14.294C415.77,139.596,421.592,145.37,421.62,153.712z
	 M398.692,153.551c-0.093,6.178,3.55,10.351,8.999,10.309c5.188-0.041,8.922-4.202,8.958-9.979
	c0.036-5.793-3.619-9.916-8.877-10.012C402.43,143.77,398.781,147.662,398.692,153.551z"/>
<path fill-rule="evenodd" clip-rule="evenodd" fill="#3B3839" d="M418.546,103.039c-3.172,2.693-6.297,5.445-9.532,8.061
	c-2.062,1.666-1.856,3.031-0.143,4.877c3.359,3.618,6.514,7.427,10.16,11.625c-3.97,1.145-6.643,0.741-8.686-2.406
	c-0.988-1.523-2.209-2.938-3.52-4.198c-1.33-1.279-2.091-4.349-4.27-3.289c-2.184,1.062-4.447,2.936-4.423,6.137
	c0.013,1.773,0.954,4.362-2.417,4.315c-3.751-0.052-2.389-2.961-2.431-4.791c-0.143-6.316-0.042-12.639-0.062-18.959
	c-0.006-1.744-0.097-3.337,2.44-3.36c2.489-0.022,2.568,1.456,2.522,3.27c-0.055,2.16-0.07,4.326,0.016,6.484
	c0.043,1.082-0.473,2.515,0.836,3.112c1.385,0.632,2.024-0.805,2.766-1.554c2.805-2.837,5.613-5.683,8.231-8.689
	C412.118,101.28,414.418,100.372,418.546,103.039z"/>
<path fill-rule="evenodd" clip-rule="evenodd" fill="#3B3839" d="M567.381,128.723c-5.164-0.138-9.582-0.818-11.355-6.066
	c-0.366-1.085-1.351-2.77,0.578-3.389c1.378-0.442,2.608-0.363,3.57,1.543c2.054,4.067,6.968,5.363,10.97,3.379
	c1.634-0.811,2.685-2.083,2.45-3.945c-0.208-1.655-1.374-2.564-3.025-2.863c-3.108-0.563-6.212-1.157-9.316-1.742
	c-3.281-0.618-5.56-2.355-5.854-5.849c-0.293-3.47,1.125-6.259,4.304-7.782c4.603-2.207,9.352-2.255,13.975-0.044
	c2.059,0.984,3.208,2.851,3.567,5.133c0.198,1.262,0.884,2.812-1.151,3.158c-1.331,0.227-2.577,0.121-3.099-1.657
	c-1.484-5.062-5.438-4.661-9.331-3.842c-1.871,0.394-3.314,1.696-3.395,3.814c-0.089,2.329,1.664,3.119,3.515,3.523
	c2.599,0.567,5.242,0.927,7.861,1.408c3.957,0.728,6.969,2.384,6.825,7.08c-0.142,4.617-2.942,6.84-7.09,7.734
	C569.928,128.63,568.406,128.625,567.381,128.723z"/>
<path fill-rule="evenodd" clip-rule="evenodd" fill="#3B3839" d="M535.321,101.071c12.019,0.016,17.475,4.989,16.602,15.134
	c-0.635,7.373-4.743,11.416-12.158,11.965c-11.863,0.878-11.863,0.878-11.863-10.846c0-2.989,0-5.979,0-8.967
	C527.901,101.062,527.901,101.062,535.321,101.071z M532.924,114.32c0,2.329-0.022,4.659,0.009,6.987
	c0.016,1.137-0.093,2.23,1.452,2.762c3.715,1.278,9.707-0.697,11.489-3.964c2.437-4.463,1.234-11.119-2.489-13.58
	c-2.877-1.902-6.296-1.797-9.156-0.898c-2.747,0.864-0.816,4.084-1.279,6.204C532.776,112.625,532.922,113.488,532.924,114.32z"/>
<path fill-rule="evenodd" clip-rule="evenodd" fill="#3B3839" d="M353.752,60.889c6.796-0.037,11.925,3.692,12.496,8.857
	c0.142,1.284,0.583,2.796-1.496,2.993c-1.452,0.138-2.246-0.238-2.92-1.864c-2.166-5.228-5.845-6.949-10.474-5.356
	c-4.705,1.62-7.174,7.308-5.588,12.875c1.337,4.693,5.637,7.421,10.306,6.53c2.606-0.497,4.813-1.694,5.6-4.348
	c0.618-2.087,1.571-3.599,3.764-2.5c1.999,1.002,0.9,2.982,0.354,4.431c-2.908,7.71-16.181,9.21-22.067,2.37
	c-4.215-4.898-4.435-10.637-2.048-16.404C343.926,63.043,348.609,61.198,353.752,60.889z"/>
<path fill-rule="evenodd" clip-rule="evenodd" fill="#3B3839" d="M431.73,74.903c0.113-10.577,9.67-16.937,19.49-12.961
	c3.499,1.416,5.706,3.93,6.378,7.691c0.235,1.315,0.633,2.819-1.348,3.088c-1.335,0.182-2.33-0.021-3.048-1.706
	c-2.333-5.477-6.122-7.222-10.789-5.39c-4.575,1.796-6.905,7.693-5.186,13.126c1.501,4.745,6.272,7.301,11.068,5.974
	c2.619-0.724,4.438-2.209,5-4.966c0.408-1.997,1.812-2.309,3.39-1.773c1.812,0.614,1.158,2.144,0.831,3.383
	c-1.282,4.852-4.908,6.951-9.487,7.592c-5.652,0.791-10.588-0.635-14.038-5.524C432.202,80.899,431.621,77.977,431.73,74.903z"/>
<path fill-rule="evenodd" clip-rule="evenodd" fill="#3B3839" d="M482.009,153.629c0.003-3.492,0.042-6.985-0.014-10.476
	c-0.029-1.76,0.416-2.883,2.468-2.823c4.317,0.127,8.699-0.254,12.941,0.357c6.671,0.961,9.028,7.083,5.16,12.668
	c-0.642,0.927-1.836,1.32-0.312,2.597c3.039,2.545,1.684,6.166,1.951,9.375c0.118,1.413-0.555,2.156-2.054,2.097
	c-1.359-0.054-2.778,0.057-2.857-1.886c-0.034-0.83,0.002-1.663-0.04-2.492c-0.105-2.09,0.584-4.589-2.018-5.65
	c-3.012-1.229-6.417-1.324-9.249-0.211c-2.185,0.858-0.758,3.872-1.063,5.906c-0.266,1.771,0.875,4.312-2.478,4.325
	c-3.406,0.015-2.332-2.561-2.402-4.311C481.916,159.952,482.007,156.789,482.009,153.629z M491.662,153.506
	c1.189,0,2.18,0.045,3.164-0.009c2.845-0.157,4.858-1.538,4.866-4.485c0.008-2.933-1.943-4.369-4.822-4.499
	c-0.985-0.044-1.993,0.105-2.959-0.042c-3.811-0.583-5.026,0.798-5.034,4.79C486.869,153.331,488.519,154.075,491.662,153.506z"/>
<path fill-rule="evenodd" clip-rule="evenodd" fill="#3B3839" d="M546.772,75.326c0.007,3.487-0.027,6.976,0.021,10.463
	c0.024,1.765-0.447,2.793-2.503,2.802c-2.167,0.009-2.273-1.224-2.37-2.877c-0.17-2.926,1.342-6.645-0.769-8.571
	c-2.047-1.868-5.735-0.295-8.657-0.692c-4.148-0.564-5.809,1.012-5.193,5.179c0.216,1.463-0.002,2.985,0.04,4.479
	c0.043,1.555-0.363,2.531-2.213,2.47c-1.521-0.05-2.596-0.328-2.591-2.151c0.021-7.64,0.014-15.279,0.019-22.919
	c0.001-1.879,1.258-2.003,2.708-2.029c1.521-0.027,2.074,0.728,2.058,2.117c-0.002,0.166-0.015,0.335,0.01,0.498
	c0.403,2.701-1.367,6.948,0.938,7.821c3.502,1.326,7.813,0.533,11.781,0.601c1.954,0.033,1.911-1.388,1.905-2.762
	c-0.008-1.993,0.044-3.987-0.001-5.979c-0.037-1.711,0.777-2.314,2.426-2.305c1.691,0.01,2.4,0.762,2.392,2.397
	C546.753,67.686,546.767,71.505,546.772,75.326z"/>
<path fill-rule="evenodd" clip-rule="evenodd" fill="#3B3839" d="M514.069,154.323c7.581-3.682,9.641-13.969,19.913-14.133
	c-2.632,4.378-6.019,7.085-9.019,10.081c-1.801,1.797-1.981,2.999-0.212,4.896c3.38,3.623,6.54,7.451,9.898,11.316
	c-5.222,1.487-5.281,1.475-8.199-1.94c-1.081-1.265-2.062-2.627-3.237-3.795c-1.458-1.448-2.479-4.754-4.53-3.869
	c-2.721,1.175-5.238,3.595-4.646,7.462c0.161,1.052,0.415,2.571-1.126,2.903c-1.847,0.398-3.755,0.564-3.737-2.345
	c0.045-7.32,0.05-14.642-0.008-21.962c-0.015-1.952,0.811-2.633,2.691-2.618c1.827,0.014,2.232,0.984,2.22,2.53
	C514.05,146.499,514.069,150.147,514.069,154.323z"/>
<path fill-rule="evenodd" clip-rule="evenodd" fill="#3B3839" d="M422.849,113.433c0.547-3.479-1.977-9.123,1.018-11.592
	c2.518-2.076,7.926-0.656,12.056-0.765c1.161-0.031,2.324,0.007,3.487,0.006c1.209,0,1.816,0.61,1.864,1.808
	c0.054,1.356-0.396,2.257-1.939,2.253c-2.657-0.007-5.324,0.156-7.969-0.021c-2.857-0.192-3.767,0.966-3.699,3.748
	c0.062,2.471,0.253,3.944,3.403,4.07c2.419,0.097,6.869-1.904,6.913,1.712c0.035,2.842-4.438,1.236-6.83,1.291
	c-3.085,0.072-3.435,1.52-3.484,4.043c-0.055,2.809,0.486,4.451,3.794,4.163c2.638-0.23,5.311-0.022,7.968-0.051
	c1.37-0.014,2.261,0.472,2.286,1.956c0.024,1.431-0.738,2.12-2.148,2.121c-4.815,0.002-9.632-0.002-14.448,0.002
	c-2.115,0.001-2.299-1.391-2.282-3.031C422.873,121.494,422.849,117.839,422.849,113.433z"/>
<path fill-rule="evenodd" clip-rule="evenodd" fill="#3B3839" d="M388.707,126.42c0.256,0.843-0.081,1.544-1.088,1.646
	c-1.62,0.162-3.367,0.558-4.422-1.301c-0.937-1.651-0.683-4.418-3.111-4.679c-3.277-0.352-6.632-0.216-9.937-0.019
	c-2.104,0.126-2.262,2.248-2.756,3.73c-0.749,2.245-2.403,2.919-4.263,2.251c-2.835-1.018-0.504-2.812-0.055-3.986
	c2.553-6.66,5.377-13.217,7.987-19.856c0.816-2.075,1.832-3.213,4.311-3.215c2.445-0.003,3.52,1.021,4.346,3.139
	c2.654,6.8,5.47,13.537,8.219,20.3C388.188,125.045,388.417,125.668,388.707,126.42z M375.128,105.38
	c-1.554,3.99-2.493,6.774-3.709,9.433c-1.451,3.17-0.481,3.995,2.828,3.953c5.983-0.074,5.99,0.098,3.916-5.427
	C377.318,111.089,376.452,108.848,375.128,105.38z"/>
<path fill-rule="evenodd" clip-rule="evenodd" fill="#3B3839" d="M394.73,72.163c0.001,1.497,0.008,2.995,0,4.492
	c-0.044,8.469-3.977,12.61-11.924,12.562c-7.976-0.048-11.879-4.169-11.92-12.613c-0.02-3.992,0.036-7.986-0.021-11.979
	c-0.027-1.906,0.298-3.232,2.678-3.164c2.217,0.064,2.261,1.469,2.26,3.045c-0.002,4.326-0.069,8.653,0.025,12.977
	c0.11,5.043,2.562,7.475,7.295,7.452c4.777-0.023,7.055-2.381,7.142-7.548c0.066-3.992-0.039-7.986,0.038-11.979
	c0.032-1.667-0.715-3.978,2.332-3.896c2.688,0.071,2.014,2.142,2.071,3.664C394.795,67.501,394.729,69.833,394.73,72.163z"/>
<path fill-rule="evenodd" clip-rule="evenodd" fill="#3B3839" d="M480.002,101.123c2.296-0.498,3.25,0.828,4.002,2.734
	c2.743,6.958,5.605,13.869,8.356,20.823c0.425,1.072,1.933,2.633-0.033,3.313c-1.581,0.548-3.646,0.771-4.797-1.391
	c-0.878-1.65-0.568-4.379-3.187-4.555c-3.306-0.222-6.654-0.192-9.956,0.078c-2.032,0.167-2.158,2.337-2.676,3.829
	c-0.795,2.292-2.548,2.736-4.359,2.043c-2.428-0.929-0.412-2.594-0.002-3.654c2.639-6.82,5.555-13.534,8.206-20.35
	C476.415,101.787,477.616,100.674,480.002,101.123z M479.766,106.047c-2.108,2.642-2.458,5.508-3.61,8.012
	c-0.346,0.75-0.605,1.541-0.885,2.32c-0.498,1.392-0.144,2.312,1.471,2.275c2.299-0.052,5.157,0.582,6.732-0.54
	c1.569-1.118-0.597-3.494-1.146-5.293C481.659,110.632,480.719,108.527,479.766,106.047z"/>
<path fill-rule="evenodd" clip-rule="evenodd" fill="#3B3839" d="M425.811,153.929c-0.001-0.999-0.145-2.023,0.025-2.993
	c0.605-3.463-1.976-9.076,1.273-10.024c5.128-1.496,11.271-1.833,16.545,1.059c3.723,2.041,4.291,5.711,3.86,9.561
	c-0.414,3.696-2.464,6.132-6.104,7.033c-1.442,0.357-2.987,0.697-4.438,0.555c-4.258-0.419-7.286,0.195-6.324,5.626
	c0.316,1.784-0.553,2.752-2.563,2.698c-2.188-0.059-2.295-1.403-2.283-3.021C425.828,160.924,425.811,157.426,425.811,153.929z
	 M430.854,149.446c-0.005,6.185-0.005,6.185,4.63,6.171c5.424-0.016,7.664-1.68,7.452-5.706c-0.245-4.674-3.396-5.209-7.292-5.529
	C430.912,143.992,430.278,146.28,430.854,149.446z"/>
<path fill-rule="evenodd" clip-rule="evenodd" fill="#3B3839" d="M464.544,140.384c2.274-0.436,3.279,0.739,4.051,2.707
	c2.729,6.953,5.652,13.828,8.377,20.782c0.393,1.001,2.032,2.632,0.043,3.305c-1.727,0.585-4.273,1.032-4.953-1.707
	c-0.82-3.299-2.536-4.783-6-4.243c-3.709,0.578-8.659-1.964-9.954,4.33c-0.451,2.193-2.438,2.186-4.035,1.696
	c-2.17-0.664-0.712-2.177-0.3-3.213c2.76-6.941,5.669-13.824,8.39-20.781C461.006,141.103,462.155,139.877,464.544,140.384z
	 M464.054,144.58c-1.698,4.534-2.849,7.787-4.141,10.983c-0.699,1.73-0.282,2.546,1.584,2.485c2.301-0.074,5.328,0.631,6.701-0.554
	c1.466-1.266-0.743-3.818-1.354-5.795C466.225,149.692,465.323,147.772,464.054,144.58z"/>
<path fill-rule="evenodd" clip-rule="evenodd" fill="#3B3839" d="M371.356,152.712c0.535-3.479-1.974-9.153,1.051-11.628
	c2.543-2.08,7.969-0.641,12.119-0.75c0.832-0.021,1.666-0.002,2.499,0c1.384,0.004,2.756,0.026,2.804,1.951
	c0.047,1.875-1.198,2.123-2.656,2.121c-2.5-0.004-5.014,0.173-7.495-0.038c-3.163-0.269-3.429,1.454-3.466,3.956
	c-0.038,2.679,0.676,4.121,3.634,3.854c1.652-0.149,3.33-0.035,4.996-0.001c1.055,0.021,2.073,0.241,2.035,1.592
	c-0.037,1.318-1.061,1.526-2.104,1.554c-1.332,0.035-2.671,0.093-3.998,0.005c-2.779-0.184-4.629,0.057-4.642,3.828
	c-0.012,3.794,1.541,4.506,4.752,4.233c2.315-0.197,4.662-0.023,6.995-0.035c1.288-0.007,2.299,0.244,2.363,1.845
	c0.072,1.81-0.927,2.247-2.5,2.234c-4.499-0.037-9-0.077-13.497,0.014c-2.167,0.044-2.961-0.862-2.914-2.964
	C371.416,160.819,371.356,157.151,371.356,152.712z"/>
<path fill-rule="evenodd" clip-rule="evenodd" fill="#3B3839" d="M488.217,87.971c-3.611,1.249-5.94,0.77-6.79-2.947
	c-0.355-1.558-1.16-2.897-3.053-2.564c-4.485,0.788-10.696-2.943-12.554,4.93c-0.42,1.783-2.593,1.401-3.921,0.965
	c-1.799-0.592-0.545-1.929-0.176-2.851c2.903-7.245,5.916-14.446,8.783-21.705c0.748-1.892,1.97-2.411,3.84-2.342
	c1.715,0.063,3.183,0.034,3.989,2.086C481.539,71.691,484.889,79.781,488.217,87.971z M474.582,66.68
	c-1.88,1.389-1.956,3.16-2.521,4.635c-3.365,8.784-3.34,8.794,7.036,7.487C477.593,74.764,476.13,70.836,474.582,66.68z"/>
<path fill-rule="evenodd" clip-rule="evenodd" fill="#3B3839" d="M410.388,75.569c0-4.327,0.037-7.819-0.016-11.312
	c-0.027-1.787,0.497-2.777,2.525-2.796c2.149-0.02,2.402,1.174,2.392,2.866c-0.036,5.321,0.148,10.649-0.071,15.962
	c-0.129,3.127,0.628,4.651,4.073,4.257c2.298-0.263,4.651-0.011,6.979-0.055c1.637-0.031,2.518,0.593,2.407,2.33
	c-0.102,1.605-1.186,1.788-2.447,1.754c-0.499-0.013-0.999,0.027-1.496-0.003c-4.613-0.284-10.495,1.922-13.495-0.888
	C408.434,85.058,410.763,79.17,410.388,75.569z"/>
<path fill-rule="evenodd" clip-rule="evenodd" fill="#3B3839" d="M341.191,114.184c0-3.148-0.001-6.298,0-9.446
	c0-1.821-0.345-3.77,2.572-3.687c2.98,0.085,2.345,2.188,2.359,3.899c0.041,4.972,0.175,9.951-0.043,14.913
	c-0.141,3.218,0.908,4.575,4.211,4.278c2.302-0.207,4.638-0.001,6.957-0.04c1.396-0.023,2.229,0.498,2.251,1.97
	c0.021,1.421-0.681,2.111-2.121,2.106c-4.64-0.016-9.28-0.009-13.921-0.009c-2.123,0-2.28-1.435-2.271-3.047
	C341.206,121.476,341.192,117.831,341.191,114.184z"/>
<path fill-rule="evenodd" clip-rule="evenodd" fill="#3B3839" d="M445.612,114.396c0-3.499,0.049-6.998-0.02-10.495
	c-0.035-1.789,0.445-2.811,2.481-2.848c2.162-0.039,2.405,1.18,2.394,2.874c-0.037,5.331,0.162,10.67-0.076,15.99
	c-0.149,3.332,1.058,4.506,4.295,4.224c2.314-0.201,4.661-0.03,6.994-0.025c1.357,0.002,2.229,0.527,2.234,2.03
	c0.006,1.523-0.914,2.022-2.245,2.026c-4.498,0.012-8.996-0.031-13.494,0.021c-2.404,0.028-2.6-1.464-2.576-3.303
	C445.645,121.393,445.612,117.894,445.612,114.396z"/>
<path fill-rule="evenodd" clip-rule="evenodd" fill="#3B3839" d="M404.916,75.169c0.003,3.332,0.004,6.663,0.002,9.995
	c-0.002,1.663,0.286,3.389-2.331,3.445c-2.397,0.053-2.663-1.223-2.647-3.141c0.062-6.996,0.034-13.993,0.023-20.99
	c-0.003-1.621,0.137-2.945,2.316-3.013c2.438-0.074,2.664,1.356,2.645,3.208C404.888,68.172,404.913,71.671,404.916,75.169z"/>
<path fill-rule="evenodd" clip-rule="evenodd" fill="#FCFCFC" d="M398.692,153.551c0.089-5.89,3.737-9.781,9.08-9.683
	c5.258,0.096,8.913,4.219,8.877,10.012c-0.036,5.777-3.771,9.938-8.958,9.979C402.242,163.902,398.6,159.729,398.692,153.551z"/>
<path fill-rule="evenodd" clip-rule="evenodd" fill="#FCFCFC" d="M532.923,114.32c-0.001-0.832-0.146-1.695,0.026-2.489
	c0.463-2.12-1.468-5.34,1.279-6.204c2.86-0.898,6.279-1.004,9.156,0.898c3.724,2.461,4.926,9.117,2.489,13.58
	c-1.782,3.267-7.774,5.242-11.489,3.964c-1.545-0.531-1.437-1.625-1.452-2.762C532.901,118.979,532.924,116.649,532.923,114.32z"/>
<path fill-rule="evenodd" clip-rule="evenodd" fill="#FCFCFC" d="M491.662,153.506c-3.144,0.568-4.793-0.176-4.785-4.245
	c0.008-3.992,1.224-5.373,5.034-4.79c0.966,0.147,1.974-0.002,2.959,0.042c2.879,0.13,4.83,1.566,4.822,4.499
	c-0.008,2.947-2.021,4.328-4.866,4.485C493.842,153.551,492.852,153.506,491.662,153.506z"/>
<path fill-rule="evenodd" clip-rule="evenodd" fill="#FCFCFC" d="M375.128,105.38c1.324,3.468,2.19,5.709,3.035,7.959
	c2.074,5.524,2.067,5.353-3.916,5.427c-3.31,0.042-4.279-0.783-2.828-3.953C372.635,112.155,373.574,109.371,375.128,105.38z"/>
<path fill-rule="evenodd" clip-rule="evenodd" fill="#FCFCFC" d="M479.766,106.047c0.953,2.479,1.894,4.585,2.562,6.774
	c0.55,1.799,2.716,4.175,1.146,5.293c-1.575,1.122-4.434,0.488-6.732,0.54c-1.614,0.037-1.969-0.884-1.471-2.275
	c0.279-0.779,0.539-1.57,0.885-2.32C477.308,111.555,477.657,108.689,479.766,106.047z"/>
<path fill-rule="evenodd" clip-rule="evenodd" fill="#FCFCFC" d="M430.854,149.446c-0.575-3.166,0.059-5.454,4.79-5.064
	c3.896,0.32,7.047,0.855,7.292,5.529c0.212,4.026-2.028,5.69-7.452,5.706C430.849,155.63,430.849,155.63,430.854,149.446z"/>
<path fill-rule="evenodd" clip-rule="evenodd" fill="#FCFCFC" d="M464.054,144.58c1.27,3.192,2.171,5.112,2.791,7.12
	c0.61,1.977,2.819,4.529,1.354,5.795c-1.373,1.185-4.4,0.479-6.701,0.554c-1.866,0.061-2.283-0.755-1.584-2.485
	C461.205,152.367,462.355,149.114,464.054,144.58z"/>
<path fill-rule="evenodd" clip-rule="evenodd" fill="#FCFCFC" d="M474.582,66.68c1.548,4.156,3.011,8.084,4.515,12.122
	c-10.376,1.307-10.401,1.297-7.036-7.487C472.626,69.84,472.702,68.069,474.582,66.68z"/>
</svg>
